<svg width="0" height="0" class="hidden">
  <symbol xmlns="http://www.w3.org/2000/svg" viewBox="0 0 512 512" id="arrow-left">
    <path fill="#6f4b27" d="M497.333 239.999H80.092l95.995-95.995l-22.627-22.627L18.837 256L153.46 390.623l22.627-22.627l-95.997-95.997h417.243v-32z"></path>
  </symbol>
  <symbol xmlns="http://www.w3.org/2000/svg" viewBox="0 0 512 512" id="arrow-right">
    <path d="m359.873 121.377l-22.627 22.627l95.997 95.997H16v32.001h417.24l-95.994 95.994l22.627 22.627L494.498 256L359.873 121.377z"></path>
  </symbol>
  <symbol xmlns="http://www.w3.org/2000/svg" viewBox="0 0 24 24" id="chat-round-like">
    <g fill="#6f4b27">
      <path d="M12 22c5.523 0 10-4.477 10-10S17.523 2 12 2S2 6.477 2 12c0 1.6.376 3.112 1.043 4.453c.178.356.237.763.134 1.148l-.595 2.226a1.3 1.3 0 0 0 1.591 1.591l2.226-.595a1.634 1.634 0 0 1 1.149.133A9.958 9.958 0 0 0 12 22Z" opacity=".5"></path>
      <path d="M7.5 11.11c0 1.368 1.319 2.804 2.529 3.833c.823.7 1.235 1.05 1.971 1.05s1.148-.35 1.971-1.05c1.21-1.03 2.529-2.465 2.529-3.834c0-2.677-2.475-3.676-4.5-1.608c-2.025-2.068-4.5-1.069-4.5 1.608Z"></path>
    </g>
  </symbol>
  <symbol xmlns="http://www.w3.org/2000/svg" viewBox="0 0 24 24" id="check-square">
    <g fill="#6f4b27">
      <path d="M12 22c-4.714 0-7.071 0-8.536-1.465C2 19.072 2 16.714 2 12s0-7.071 1.464-8.536C4.93 2 7.286 2 12 2c4.714 0 7.071 0 8.535 1.464C22 4.93 22 7.286 22 12c0 4.714 0 7.071-1.465 8.535C19.072 22 16.714 22 12 22Z" opacity=".5"></path>
      <path d="M16.03 8.97a.75.75 0 0 1 0 1.06l-5 5a.75.75 0 0 1-1.06 0l-2-2a.75.75 0 1 1 1.06-1.06l1.47 1.47l4.47-4.47a.75.75 0 0 1 1.06 0Z"></path>
    </g>
  </symbol>
  <symbol xmlns="http://www.w3.org/2000/svg" viewBox="0 0 24 24" id="facebook">
    <path fill="#6f4b27" d="M14 13.5h2.5l1-4H14v-2c0-1.03 0-2 2-2h1.5V2.14c-.326-.043-1.557-.14-2.857-.14C11.928 2 10 3.657 10 6.7v2.8H7v4h3V22h4v-8.5Z"></path>
  </symbol>
  <symbol xmlns="http://www.w3.org/2000/svg" viewBox="0 0 1024 1024" id="instagram">
    <path fill="#6f4b27" d="M512 378.7c-73.4 0-133.3 59.9-133.3 133.3S438.6 645.3 512 645.3S645.3 585.4 645.3 512S585.4 378.7 512 378.7zM911.8 512c0-55.2.5-109.9-2.6-165c-3.1-64-17.7-120.8-64.5-167.6c-46.9-46.9-103.6-61.4-167.6-64.5c-55.2-3.1-109.9-2.6-165-2.6c-55.2 0-109.9-.5-165 2.6c-64 3.1-120.8 17.7-167.6 64.5C132.6 226.3 118.1 283 115 347c-3.1 55.2-2.6 109.9-2.6 165s-.5 109.9 2.6 165c3.1 64 17.7 120.8 64.5 167.6c46.9 46.9 103.6 61.4 167.6 64.5c55.2 3.1 109.9 2.6 165 2.6c55.2 0 109.9.5 165-2.6c64-3.1 120.8-17.7 167.6-64.5c46.9-46.9 61.4-103.6 64.5-167.6c3.2-55.1 2.6-109.8 2.6-165zM512 717.1c-113.5 0-205.1-91.6-205.1-205.1S398.5 306.9 512 306.9S717.1 398.5 717.1 512S625.5 717.1 512 717.1zm213.5-370.7c-26.5 0-47.9-21.4-47.9-47.9s21.4-47.9 47.9-47.9s47.9 21.4 47.9 47.9a47.84 47.84 0 0 1-47.9 47.9z"></path>
  </symbol>
  <symbol xmlns="http://www.w3.org/2000/svg" viewBox="0 0 24 24" id="letter-unread">
    <g fill="#6f4b27">
      <path d="M24 5a3 3 0 1 1-6 0a3 3 0 0 1 6 0Zm-6.766 2.464l-1.537 1.28c-1.026.856-1.738 1.447-2.34 1.834c-.582.375-.977.5-1.357.5s-.774-.125-1.357-.5c-.601-.386-1.314-.978-2.34-1.834L5.928 6.765a.825.825 0 0 0-1.056 1.268l2.416 2.014c.975.812 1.765 1.47 2.463 1.92c.726.466 1.434.762 2.25.762c.814 0 1.522-.296 2.248-.763c.698-.448 1.488-1.107 2.463-1.92l1.666-1.388a4.524 4.524 0 0 1-1.144-1.194Z"></path>
      <path d="M18.454 6.587a.825.825 0 0 1 .958.959a3.015 3.015 0 0 1-.958-.959Z"></path>
      <path d="M16.958 3.021C16.156 3 15.244 3 14.2 3H9.8C5.652 3 3.577 3 2.289 4.318C1 5.636 1 7.758 1 12c0 4.243 0 6.364 1.289 7.682C3.577 21 5.652 21 9.8 21h4.4c4.148 0 6.223 0 7.511-1.318C23 18.364 23 16.242 23 12c0-1.067 0-2-.02-2.82a4.4 4.4 0 0 1-1.98.468c-2.485 0-4.5-2.06-4.5-4.603c0-.726.165-1.413.458-2.024Z" opacity=".5"></path>
    </g>
  </symbol>
  <symbol xmlns="http://www.w3.org/2000/svg" viewBox="0 0 24 24" id="mail-24">
    <path fill="white" d="M1.75 3h20.5c.966 0 1.75.784 1.75 1.75v14a1.75 1.75 0 0 1-1.75 1.75H1.75A1.75 1.75 0 0 1 0 18.75v-14C0 3.784.784 3 1.75 3ZM1.5 7.412V18.75c0 .138.112.25.25.25h20.5a.25.25 0 0 0 .25-.25V7.412l-9.52 6.433c-.592.4-1.368.4-1.96 0Zm0-2.662v.852l10.36 7a.25.25 0 0 0 .28 0l10.36-7V4.75a.25.25 0 0 0-.25-.25H1.75a.25.25 0 0 0-.25.25Z"></path>
  </symbol>
  <symbol xmlns="http://www.w3.org/2000/svg" viewBox="0 0 1200 1200" id="phone">
    <path fill="#6f4b27" d="m1183.326 997.842l-169.187 167.83c-24.974 25.612-58.077 34.289-90.316 34.328c-142.571-4.271-277.333-74.304-387.981-146.215C354.22 921.655 187.574 757.82 82.984 559.832C42.87 476.809-4.198 370.878.299 278.209c.401-34.86 9.795-69.073 34.346-91.543L203.831 17.565c35.132-29.883 69.107-19.551 91.589 15.257l136.111 258.102c14.326 30.577 6.108 63.339-15.266 85.188l-62.332 62.3c-3.848 5.271-6.298 11.271-6.36 17.801c23.902 92.522 96.313 177.799 160.281 236.486c63.967 58.688 132.725 138.198 221.977 157.021c11.032 3.077 24.545 4.158 32.438-3.179l72.51-73.743c24.996-18.945 61.086-28.205 87.771-12.714h1.272l245.51 144.943c36.041 22.592 39.799 66.252 13.994 92.815z"></path>
  </symbol>
  <symbol xmlns="http://www.w3.org/2000/svg" viewBox="0 0 24 24" id="twitter-x">
    <path fill="#6f4b27" d="M18.205 2.25h3.308l-7.227 8.26l8.502 11.24H16.13l-5.214-6.817L4.95 21.75H1.64l7.73-8.835L1.215 2.25H8.04l4.713 6.231l5.45-6.231Zm-1.161 17.52h1.833L7.045 4.126H5.078L17.044 19.77Z"></path>
  </symbol>
  <symbol xmlns="http://www.w3.org/2000/svg" viewBox="0 0 24 24" id="youtube">
    <path fill="white" d="m10 15l5.19-3L10 9v6m11.56-7.83c.13.47.22 1.1.28 1.9c.07.8.1 1.49.1 2.09L22 12c0 2.19-.16 3.8-.44 4.83c-.25.9-.83 1.48-1.73 1.73c-.47.13-1.33.22-2.65.28c-1.3.07-2.49.1-3.59.1L12 19c-4.19 0-6.8-.16-7.83-.44c-.9-.25-1.48-.83-1.73-1.73c-.13-.47-.22-1.1-.28-1.9c-.07-.8-.1-1.49-.1-2.09L2 12c0-2.19.16-3.8.44-4.83c.25-.9.83-1.48 1.73-1.73c.47-.13 1.33-.22 2.65-.28c1.3-.07 2.49-.1 3.59-.1L12 5c4.19 0 6.8.16 7.83.44c.9.25 1.48.83 1.73 1.73Z"></path>
  </symbol>
   <symbol fill="none" xmlns="http://www.w3.org/2000/svg" viewBox="0 0 100 112" id="parcel">
    <circle cx="50" cy="62" r="50" fill="#EBE6E1"></circle>
    <circle cx="50" cy="14" r="13" fill="#6F4B27" stroke="white" stroke-width="2"></circle>
    <path d="M49.5026 16.726C49.0706 17.32 48.4646 17.617 47.6846 17.617C46.9046 17.617 46.2956 17.32 45.8576 16.726C45.4256 16.132 45.2096 15.34 45.2096 14.35C45.2096 13.36 45.4256 12.568 45.8576 11.974C46.2956 11.38 46.9046 11.083 47.6846 11.083C48.4646 11.083 49.0706 11.38 49.5026 11.974C49.9406 12.568 50.1596 13.36 50.1596 14.35C50.1596 15.34 49.9406 16.132 49.5026 16.726ZM47.6846 16.609C48.1526 16.609 48.5096 16.414 48.7556 16.024C49.0016 15.634 49.1246 15.076 49.1246 14.35C49.1246 13.624 49.0016 13.066 48.7556 12.676C48.5096 12.286 48.1526 12.091 47.6846 12.091C47.2226 12.091 46.8656 12.286 46.6136 12.676C46.3676 13.066 46.2446 13.624 46.2446 14.35C46.2446 15.076 46.3676 15.634 46.6136 16.024C46.8656 16.414 47.2226 16.609 47.6846 16.609ZM50.6657 17.5V16.69L52.8617 14.449C53.3957 13.915 53.6627 13.453 53.6627 13.063C53.6627 12.757 53.5697 12.52 53.3837 12.352C53.2037 12.178 52.9727 12.091 52.6907 12.091C52.1627 12.091 51.7727 12.352 51.5207 12.874L50.6477 12.361C50.8457 11.941 51.1247 11.623 51.4847 11.407C51.8447 11.191 52.2437 11.083 52.6817 11.083C53.2337 11.083 53.7077 11.257 54.1037 11.605C54.4997 11.953 54.6977 12.427 54.6977 13.027C54.6977 13.669 54.3407 14.353 53.6267 15.079L52.2047 16.501H54.8147V17.5H50.6657Z" fill="white"></path>
    <path d="M43.4404 77.7997C46.6597 79.49 48.2694 80.3333 50.0001 80.3333V62L32.8364 52.9672C32.8115 53.0078 32.787 53.0488 32.7631 53.09C31.6667 54.949 31.6667 57.2645 31.6667 61.8937V62.1082C31.6667 66.7355 31.6667 69.051 32.7612 70.91C33.8576 72.7708 35.8302 73.8067 39.7737 75.8765L43.4404 77.7997Z" fill="#6F4B27"></path>
    <path opacity="0.5" d="M60.2246 48.1253L56.5579 46.2003C53.3404 44.5118 51.7308 43.6666 50.0001 43.6666C48.2676 43.6666 46.6598 44.51 43.4404 46.2003L39.7738 48.1253C35.9164 50.1493 33.9438 51.1833 32.8364 52.9653L50.0001 62L67.1638 52.9671C66.0528 51.1833 64.0838 50.1493 60.2246 48.1253Z" fill="#6F4B27"></path>
    <path opacity="0.5" d="M67.2388 53.09C67.2143 53.0487 67.1892 53.0078 67.1637 52.9672L50 62V80.3333C51.7307 80.3333 53.3403 79.49 56.5597 77.7997L60.2263 75.8747C64.1698 73.8048 66.1425 72.7708 67.2388 70.91C68.3333 69.051 68.3333 66.7355 68.3333 62.11V61.8955C68.3333 57.2663 68.3333 54.949 67.2388 53.09Z" fill="#6F4B27"></path>
    <path d="M39.5922 48.2207L39.7755 48.1253L42.5127 46.688L59.196 55.8638L66.5752 52.177C66.8263 52.4612 67.0463 52.7637 67.2388 53.09C67.5138 53.5557 67.7192 54.0507 67.8732 54.6025L60.5417 58.2673V63.8333C60.5417 64.198 60.3968 64.5477 60.1389 64.8056C59.8811 65.0635 59.5313 65.2083 59.1667 65.2083C58.802 65.2083 58.4523 65.0635 58.1944 64.8056C57.9365 64.5477 57.7917 64.198 57.7917 63.8333V59.6423L51.375 62.8507V80.1573C50.9257 80.2726 50.4638 80.3317 50 80.3333C49.5453 80.3333 49.0962 80.2747 48.625 80.1573V62.8507L32.1287 54.6007C32.2827 54.0507 32.488 53.5557 32.763 53.09C32.9539 52.7647 33.1762 52.4589 33.4267 52.177L50 60.4637L56.2077 57.3598L39.5922 48.2207Z" fill="#6F4B27"></path>
  </symbol>
  <symbol fill="none" xmlns="http://www.w3.org/2000/svg" viewBox="0 0 100 112" id="thing">
    <circle cx="50" cy="62" r="50" fill="#EBE6E1"></circle>
    <circle cx="50" cy="14" r="13" fill="#6F4B27" stroke="white" stroke-width="2"></circle>
    <path d="M49.5026 16.726C49.0706 17.32 48.4646 17.617 47.6846 17.617C46.9046 17.617 46.2956 17.32 45.8576 16.726C45.4256 16.132 45.2096 15.34 45.2096 14.35C45.2096 13.36 45.4256 12.568 45.8576 11.974C46.2956 11.38 46.9046 11.083 47.6846 11.083C48.4646 11.083 49.0706 11.38 49.5026 11.974C49.9406 12.568 50.1596 13.36 50.1596 14.35C50.1596 15.34 49.9406 16.132 49.5026 16.726ZM47.6846 16.609C48.1526 16.609 48.5096 16.414 48.7556 16.024C49.0016 15.634 49.1246 15.076 49.1246 14.35C49.1246 13.624 49.0016 13.066 48.7556 12.676C48.5096 12.286 48.1526 12.091 47.6846 12.091C47.2226 12.091 46.8656 12.286 46.6136 12.676C46.3676 13.066 46.2446 13.624 46.2446 14.35C46.2446 15.076 46.3676 15.634 46.6136 16.024C46.8656 16.414 47.2226 16.609 47.6846 16.609ZM53.296 13.774C53.752 13.882 54.121 14.095 54.403 14.413C54.691 14.725 54.835 15.118 54.835 15.592C54.835 16.222 54.622 16.717 54.196 17.077C53.77 17.437 53.248 17.617 52.63 17.617C52.15 17.617 51.718 17.506 51.334 17.284C50.956 17.062 50.683 16.738 50.515 16.312L51.397 15.799C51.583 16.339 51.994 16.609 52.63 16.609C52.99 16.609 53.275 16.519 53.485 16.339C53.695 16.153 53.8 15.904 53.8 15.592C53.8 15.28 53.695 15.034 53.485 14.854C53.275 14.674 52.99 14.584 52.63 14.584H52.396L51.982 13.963L53.341 12.172H50.704V11.2H54.574V12.082L53.296 13.774Z" fill="white"></path>
    <path d="M32.1746 49.6195C32.2229 49.4454 32.3051 49.2825 32.4164 49.1401C32.5276 48.9978 32.6659 48.8788 32.8232 48.7899C32.9806 48.701 33.1539 48.644 33.3332 48.6222C33.5126 48.6003 33.6945 48.614 33.8686 48.6625L36.9908 49.5278C37.8182 49.7526 38.5733 50.1878 39.1825 50.7912C39.7917 51.3946 40.2342 52.1456 40.4668 52.9708L44.4103 67.2452L44.6999 68.2462C45.8604 68.6807 46.8578 69.4928 47.4903 70.5708L48.0586 70.3948L64.3203 66.169C64.4951 66.1235 64.6771 66.1129 64.856 66.1377C65.0349 66.1626 65.2071 66.2224 65.3629 66.3138C65.5187 66.4053 65.6549 66.5265 65.7639 66.6705C65.8728 66.8146 65.9523 66.9787 65.9978 67.1535C66.0433 67.3283 66.0539 67.5103 66.0291 67.6892C66.0042 67.8681 65.9444 68.0404 65.8529 68.1962C65.7615 68.3519 65.6403 68.4882 65.4962 68.5971C65.3522 68.706 65.1881 68.7855 65.0133 68.831L48.8103 73.0403L48.2089 73.2273C48.1961 75.5557 46.5883 77.6842 44.1573 78.3167C41.2404 79.0757 38.2429 77.3963 37.4619 74.5693C36.6809 71.7405 38.4116 68.8328 41.3266 68.0757C41.4702 68.0387 41.6152 68.0069 41.7611 67.9803L37.8158 53.7023C37.7096 53.3355 37.5102 53.0024 37.2372 52.7355C36.9641 52.4685 36.6266 52.2767 36.2574 52.1788L33.1334 51.3117C32.9593 51.2636 32.7964 51.1816 32.654 51.0705C32.5116 50.9594 32.3925 50.8214 32.3035 50.6642C32.2144 50.5071 32.1572 50.3339 32.1351 50.1547C32.113 49.9754 32.1264 49.7936 32.1746 49.6195Z" fill="#6F4B27"></path>
    <path opacity="0.5" d="M45.5341 56.005L46.4783 59.4205C47.3674 62.638 47.8111 64.2477 49.1183 64.9792C50.4254 65.7125 52.0846 65.2799 55.4029 64.4182L58.9229 63.5015C62.2413 62.6399 63.9004 62.209 64.6558 60.9422C65.4111 59.6735 64.9674 58.0639 64.0764 54.8464L63.1341 51.4327C62.2449 48.2134 61.7994 46.6037 60.4941 45.8722C59.1851 45.1389 57.5259 45.5715 54.2076 46.435L50.6876 47.348C47.3693 48.2097 45.7101 48.6424 44.9566 49.911C44.2013 51.1779 44.6449 52.7875 45.5341 56.005Z" fill="#6F4B27"></path>
  </symbol>
  <symbol fill="none" xmlns="http://www.w3.org/2000/svg" viewBox="0 0 100 112" id="passport">
    <circle cx="50" cy="62" r="50" fill="#EBE6E1"></circle>
    <circle cx="50" cy="14" r="13" fill="#6F4B27" stroke="white" stroke-width="2"></circle>
    <path d="M49.2082 16.726C48.7762 17.32 48.1702 17.617 47.3902 17.617C46.6102 17.617 46.0012 17.32 45.5632 16.726C45.1312 16.132 44.9152 15.34 44.9152 14.35C44.9152 13.36 45.1312 12.568 45.5632 11.974C46.0012 11.38 46.6102 11.083 47.3902 11.083C48.1702 11.083 48.7762 11.38 49.2082 11.974C49.6462 12.568 49.8652 13.36 49.8652 14.35C49.8652 15.34 49.6462 16.132 49.2082 16.726ZM47.3902 16.609C47.8582 16.609 48.2152 16.414 48.4612 16.024C48.7072 15.634 48.8302 15.076 48.8302 14.35C48.8302 13.624 48.7072 13.066 48.4612 12.676C48.2152 12.286 47.8582 12.091 47.3902 12.091C46.9282 12.091 46.5712 12.286 46.3192 12.676C46.0732 13.066 45.9502 13.624 45.9502 14.35C45.9502 15.076 46.0732 15.634 46.3192 16.024C46.5712 16.414 46.9282 16.609 47.3902 16.609ZM55.2911 15.403V16.366H54.5711V17.5H53.5271V16.366H50.4311V15.403L52.6001 11.2H53.7251L51.5561 15.403H53.5271V13.765H54.5711V15.403H55.2911Z" fill="white"></path>
    <path d="M45.875 63.8333C45.875 62.7392 46.3096 61.69 47.0832 60.9164C47.8568 60.1428 48.906 59.7083 50 59.7083C51.094 59.7083 52.1432 60.1428 52.9168 60.9164C53.6904 61.69 54.125 62.7392 54.125 63.8333C54.125 64.9273 53.6904 65.9765 52.9168 66.7501C52.1432 67.5237 51.094 67.9583 50 67.9583C48.906 67.9583 47.8568 67.5237 47.0832 66.7501C46.3096 65.9765 45.875 64.9273 45.875 63.8333Z" fill="#6F4B27"></path>
    <path fill-rule="evenodd" clip-rule="evenodd" d="M35.3335 74.2723V48.6056C35.3335 49.0918 35.5267 49.5581 35.8705 49.902C36.2143 50.2458 36.6806 50.4389 37.1668 50.4389H59.1668C60.6255 50.4389 62.0245 51.0184 63.0559 52.0498C64.0874 53.0813 64.6668 54.4802 64.6668 55.9389V74.2723C64.6668 75.7309 64.0874 77.1299 63.0559 78.1613C62.0245 79.1928 60.6255 79.7723 59.1668 79.7723H40.8335C39.3748 79.7723 37.9759 79.1928 36.9444 78.1613C35.913 77.1299 35.3335 75.7309 35.3335 74.2723ZM43.1252 63.8333C43.1252 62.0099 43.8495 60.2612 45.1388 58.9719C46.4281 57.6826 48.1768 56.9583 50.0002 56.9583C51.8235 56.9583 53.5722 57.6826 54.8615 58.9719C56.1508 60.2612 56.8752 62.0099 56.8752 63.8333C56.8752 65.6566 56.1508 67.4053 54.8615 68.6946C53.5722 69.9839 51.8235 70.7083 50.0002 70.7083C48.1768 70.7083 46.4281 69.9839 45.1388 68.6946C43.8495 67.4053 43.1252 65.6566 43.1252 63.8333ZM44.9585 74.8333C44.9585 74.4686 45.1034 74.1188 45.3612 73.861C45.6191 73.6031 45.9688 73.4583 46.3335 73.4583H53.6668C54.0315 73.4583 54.3812 73.6031 54.6391 73.861C54.897 74.1188 55.0418 74.4686 55.0418 74.8333C55.0418 75.1979 54.897 75.5477 54.6391 75.8055C54.3812 76.0634 54.0315 76.2083 53.6668 76.2083H46.3335C45.9688 76.2083 45.6191 76.0634 45.3612 75.8055C45.1034 75.5477 44.9585 75.1979 44.9585 74.8333Z" fill="#6F4B27"></path>
    <path opacity="0.5" d="M61.0002 47.3333V50.7524C60.4263 50.5508 59.8085 50.4408 59.1668 50.4408H37.1668C36.6806 50.4408 36.2143 50.2476 35.8705 49.9038C35.5267 49.56 35.3335 49.0937 35.3335 48.6074V48.4754C35.3335 47.4983 36.0522 46.6696 37.0202 46.5321L56.8147 43.7033C57.3348 43.6289 57.8647 43.6672 58.3687 43.8156C58.8727 43.9639 59.339 44.2188 59.7359 44.563C60.1328 44.9073 60.4511 45.3327 60.6692 45.8107C60.8873 46.2887 61.0002 46.8079 61.0002 47.3333Z" fill="#6F4B27"></path>
  </symbol>
  <symbol fill="none" xmlns="http://www.w3.org/2000/svg" viewBox="0 0 100 112" id="document">
    <circle cx="50" cy="62" r="50" fill="#EBE6E1"></circle>
    <circle cx="50" cy="14" r="13" fill="#6F4B27" stroke="white" stroke-width="2"></circle>
    <path d="M50.2321 16.726C49.8001 17.32 49.1941 17.617 48.4141 17.617C47.6341 17.617 47.0251 17.32 46.5871 16.726C46.1551 16.132 45.9391 15.34 45.9391 14.35C45.9391 13.36 46.1551 12.568 46.5871 11.974C47.0251 11.38 47.6341 11.083 48.4141 11.083C49.1941 11.083 49.8001 11.38 50.2321 11.974C50.6701 12.568 50.8891 13.36 50.8891 14.35C50.8891 15.34 50.6701 16.132 50.2321 16.726ZM48.4141 16.609C48.8821 16.609 49.2391 16.414 49.4851 16.024C49.7311 15.634 49.8541 15.076 49.8541 14.35C49.8541 13.624 49.7311 13.066 49.4851 12.676C49.2391 12.286 48.8821 12.091 48.4141 12.091C47.9521 12.091 47.5951 12.286 47.3431 12.676C47.0971 13.066 46.9741 13.624 46.9741 14.35C46.9741 15.076 47.0971 15.634 47.3431 16.024C47.5951 16.414 47.9521 16.609 48.4141 16.609ZM52.8453 11.2H53.7453V17.5H52.7103V12.307L51.4413 12.667L51.1893 11.785L52.8453 11.2Z" fill="white"></path>
    <path fill-rule="evenodd" clip-rule="evenodd" d="M38.7782 45.2781C37.1667 46.8878 37.1667 49.482 37.1667 54.6666V69.3333C37.1667 74.518 37.1667 77.1121 38.7782 78.7218C40.3879 80.3333 42.9821 80.3333 48.1667 80.3333H51.8334C57.0181 80.3333 59.6122 80.3333 61.2219 78.7218C62.8334 77.1121 62.8334 74.518 62.8334 69.3333V54.6666C62.8334 49.482 62.8334 46.8878 61.2219 45.2781C59.6122 43.6666 57.0181 43.6666 51.8334 43.6666H48.1667C42.9821 43.6666 40.3879 43.6666 38.7782 45.2781ZM43.1251 71.1666C43.1251 70.802 43.2699 70.4522 43.5278 70.1944C43.7857 69.9365 44.1354 69.7916 44.5001 69.7916H50.0001C50.3648 69.7916 50.7145 69.9365 50.9724 70.1944C51.2302 70.4522 51.3751 70.802 51.3751 71.1666C51.3751 71.5313 51.2302 71.881 50.9724 72.1389C50.7145 72.3968 50.3648 72.5416 50.0001 72.5416H44.5001C44.1354 72.5416 43.7857 72.3968 43.5278 72.1389C43.2699 71.881 43.1251 71.5313 43.1251 71.1666ZM44.5001 62.4583C44.1354 62.4583 43.7857 62.6032 43.5278 62.861C43.2699 63.1189 43.1251 63.4686 43.1251 63.8333C43.1251 64.198 43.2699 64.5477 43.5278 64.8056C43.7857 65.0634 44.1354 65.2083 44.5001 65.2083H55.5001C55.8648 65.2083 56.2145 65.0634 56.4724 64.8056C56.7302 64.5477 56.8751 64.198 56.8751 63.8333C56.8751 63.4686 56.7302 63.1189 56.4724 62.861C56.2145 62.6032 55.8648 62.4583 55.5001 62.4583H44.5001ZM43.1251 56.5C43.1251 56.1353 43.2699 55.7856 43.5278 55.5277C43.7857 55.2698 44.1354 55.125 44.5001 55.125H55.5001C55.8648 55.125 56.2145 55.2698 56.4724 55.5277C56.7302 55.7856 56.8751 56.1353 56.8751 56.5C56.8751 56.8646 56.7302 57.2144 56.4724 57.4722C56.2145 57.7301 55.8648 57.875 55.5001 57.875H44.5001C44.1354 57.875 43.7857 57.7301 43.5278 57.4722C43.2699 57.2144 43.1251 56.8646 43.1251 56.5Z" fill="#6F4B27"></path>
    <path opacity="0.5" d="M37.5976 47.4396C37.1667 49.0584 37.1667 51.3244 37.1667 54.6666V69.3332C37.1667 72.6754 37.1667 74.9396 37.5976 76.5602L37.1667 76.5272C35.3792 76.3512 34.1766 75.9534 33.2782 75.0551C31.6667 73.4454 31.6667 70.8512 31.6667 65.6666V58.3332C31.6667 53.1467 31.6667 50.5544 33.2782 48.9447C34.1766 48.0464 35.3792 47.6486 37.1667 47.4726L37.5976 47.4396ZM62.4026 76.5602C62.8334 74.9396 62.8334 72.6736 62.8334 69.3332V54.6666C62.8334 51.3244 62.8334 49.0584 62.4026 47.4396L62.8334 47.4726C64.6209 47.6486 65.8236 48.0464 66.7219 48.9447C68.3334 50.5544 68.3334 53.1449 68.3334 58.3314V65.6647C68.3334 70.8531 68.3334 73.4436 66.7219 75.0551C65.8236 75.9534 64.6209 76.3512 62.8334 76.5272L62.4026 76.5602Z" fill="#6F4B27"></path>
  </symbol>
  <symbol xmlns="http://www.w3.org/2000/svg" viewBox="0 0 512 512" id="arrow-top">
    <path d="M390.624 150.625L256 16L121.376 150.625l22.628 22.627l95.997-95.998v417.982h32V77.257l95.995 95.995l22.628-22.627z"></path>
  </symbol>
    <symbol xmlns="http://www.w3.org/2000/svg" viewBox="0 0 1600 1280" id="check">
    <path d="M1575 310q0 40-28 68l-724 724l-136 136q-28 28-68 28t-68-28l-136-136L53 740q-28-28-28-68t28-68l136-136q28-28 68-28t68 28l294 295l656-657q28-28 68-28t68 28l136 136q28 28 28 68z"></path>
  </symbol>
</svg>